<svg xmlns="http://www.w3.org/2000/svg" xmlns:xlink="http://www.w3.org/1999/xlink" xmlns:lucid="lucid" width="940" height="640"><g transform="translate(40 -220)" lucid:page-tab-id="0_0"><path d="M-500 0h1500v1000H-500z" fill-opacity="0"/><path d="M-20 506a6 6 0 0 1 6-6h208a6 6 0 0 1 6 6v68a6 6 0 0 1-6 6H-14a6 6 0 0 1-6-6z" stroke="#979ea8" stroke-width="2" fill-opacity="0"/><use xlink:href="#a" transform="matrix(1,0,0,1,-15,505) translate(82.77777777777777 39.65277777777778)"/><path d="M320 246a6 6 0 0 1 6-6h208a6 6 0 0 1 6 6v68a6 6 0 0 1-6 6H326a6 6 0 0 1-6-6z" stroke="#979ea8" stroke-width="2" fill-opacity="0"/><use xlink:href="#b" transform="matrix(1,0,0,1,325,245) translate(55.67901234567901 39.65277777777778)"/><use xlink:href="#c" transform="matrix(1,0,0,1,325,245) translate(107.46913580246914 39.65277777777778)"/><path d="M660 506a6 6 0 0 1 6-6h208a6 6 0 0 1 6 6v68a6 6 0 0 1-6 6H666a6 6 0 0 1-6-6z" stroke="#979ea8" stroke-width="2" fill-opacity="0"/><use xlink:href="#d" transform="matrix(1,0,0,1,665,505) translate(47.592592592592595 39.65277777777778)"/><use xlink:href="#e" transform="matrix(1,0,0,1,665,505) translate(100.67901234567901 39.65277777777778)"/><path d="M320 766a6 6 0 0 1 6-6h208a6 6 0 0 1 6 6v68a6 6 0 0 1-6 6H326a6 6 0 0 1-6-6z" stroke="#979ea8" stroke-width="2" fill-opacity="0"/><use xlink:href="#f" transform="matrix(1,0,0,1,325,765) translate(26.51234567901234 39.65277777777778)"/><use xlink:href="#g" transform="matrix(1,0,0,1,325,765) translate(77.5 39.65277777777778)"/><path d="M151.28 731.06l6.42 6.28 6.73 6.06 7.02 5.8 7.33 5.57 7.6 5.3 7.9 5 8.18 4.72 8.45 4.4 8.72 4.1 8.95 3.77 9.2 3.42 9.44 3.06 9.66 2.7 9.88 2.3 10.07 1.93 10.28 1.5 10.46 1.1 10.64.67 9.84.2-.04 2-9.88-.2-10.73-.67-10.54-1.1-10.35-1.54-10.16-1.94-9.95-2.33-9.74-2.73-9.5-3.1-9.3-3.44-9.03-3.8-8.78-4.13-8.52-4.45-8.25-4.77-7.97-5.05-7.68-5.34-7.4-5.62-7.08-5.87-6.8-6.1-6.47-6.34-6.16-6.57-.17-.2h2.72zM92.24 604.9l1.17 9.2 1.53 9.03 1.88 8.84 2.23 8.66 2.56 8.5 2.9 8.3 3.22 8.17 3.56 7.98 3.88 7.82 4.2 7.65 4.53 7.47 4.83 7.3.4.55h-2.43l-4.5-6.78-4.57-7.55-4.25-7.72-3.9-7.9-3.6-8.06-3.26-8.23-2.93-8.4-2.6-8.57-2.24-8.74-1.9-8.92-1.53-9.1-1.18-9.3-.46-5.54 1.98-.16z" stroke="#979ea8" stroke-width=".05" fill="#979ea8"/><path d="M319 799v2l-1.05-.02.04-2z" fill="#979ea8"/><path d="M319.02 798.98v2.05l-1.1-.03.05-2.05zm-1.04 1.97l1 .02v-1.95l-.96-.02z" stroke="#979ea8" stroke-width=".05" fill="#979ea8"/><path d="M95.37 598.3l-9.26.38 4.04-14.45z" fill="#979ea8"/><path d="M96.8 599.23l-12.02.5L90 581zm-9.36-1.6l6.52-.28-3.7-9.88z" stroke="#979ea8" stroke-width=".05" fill="#979ea8"/><use xlink:href="#h" transform="matrix(1,0,0,1,84.07896508616398,704.3705161245139) translate(0 14.222222222222223)"/><use xlink:href="#i" transform="matrix(1,0,0,1,84.07896508616398,704.3705161245139) translate(58.17283950617285 14.222222222222223)"/><path d="M131.28 372.6l-5 7.2-4.7 7.4-4.36 7.55-4.04 7.73-3.72 7.9-3.4 8.07-3.06 8.24-2.73 8.4-2.4 8.57-2.04 8.75-1.7 8.93-1.35 9.1-.98 9.32-.6 9.5-.18 8.75-2-.04.2-8.8.6-9.58.97-9.4 1.35-9.18 1.72-9 2.07-8.85 2.42-8.65 2.75-8.5 3.1-8.3 3.43-8.15 3.76-7.98 4.07-7.82 4.4-7.63 4.74-7.45 5.06-7.27 1.5-1.97h2.5zm169.32-90.9l-8.3.7-10.37 1.3-10.18 1.72-9.97 2.12-9.76 2.5-9.55 2.9-9.32 3.23-9.08 3.6-8.83 3.93-8.58 4.26-8.3 4.57-8.05 4.86-7.75 5.15-7.47 5.42-7.17 5.7-6.87 5.93-6.57 6.17-2.3 2.36h-2.8l3.7-3.8 6.63-6.22 6.93-5.98 7.24-5.74 7.54-5.48 7.84-5.2 8.1-4.9 8.4-4.62 8.65-4.3 8.9-3.96 9.15-3.62 9.4-3.27 9.63-2.9 9.84-2.54 10.06-2.15 10.26-1.73 10.45-1.32 8.33-.7z" stroke="#979ea8" stroke-width=".05" fill="#979ea8"/><path d="M91.02 498l-.02 1h-2l.02-1.05z" fill="#979ea8"/><path d="M91.05 497.97l-.02 1.05h-2.06l.03-1.1zm-2.02 1h1.95l.02-.95-1.95-.04z" stroke="#979ea8" stroke-width=".05" fill="#979ea8"/><path d="M315.77 280.12l-14.08 5.17-.36-9.27z" fill="#979ea8"/><path d="M319 280l-18.26 6.7-.46-12zm-16.37 3.88l9.9-3.64-10.14-2.87z" stroke="#979ea8" stroke-width=".05" fill="#979ea8"/><use xlink:href="#j" transform="matrix(1,0,0,1,27.545239411757123,348.1250727128467) translate(0 14.222222222222223)"/><use xlink:href="#k" transform="matrix(1,0,0,1,27.545239411757123,348.1250727128467) translate(88.74074074074073 14.222222222222223)"/><use xlink:href="#l" transform="matrix(1,0,0,1,27.545239411757123,348.1250727128467) translate(170.5679012345679 14.222222222222223)"/><path d="M716.3 354.1l5.87 6.8 5.53 6.97 5.2 7.18 4.9 7.36 4.57 7.55 4.25 7.72 3.9 7.9 3.6 8.06 3.26 8.23 2.93 8.4 2.6 8.57 2.24 8.74 1.9 8.93 1.53 9.1 1.18 9.3.46 5.54-1.98.16-.46-5.5-1.16-9.2-1.53-9.03-1.88-8.84-2.23-8.66-2.57-8.5-2.9-8.3-3.22-8.17-3.56-7.98-3.88-7.82-4.2-7.65-4.53-7.47-4.83-7.3-5.16-7.1-5.48-6.92-5.8-6.7-3.27-3.5h2.75zm-164.4-74.87l10.73.67 10.54 1.1 10.35 1.54 10.16 1.94 9.95 2.33 9.74 2.73 9.5 3.1 9.3 3.44 9.03 3.8 8.78 4.13 8.52 4.45 8.25 4.77 7.97 5.05 7.68 5.34 7.4 5.62 1.7 1.4h-3.16l-7.12-5.4-7.6-5.28-7.9-5-8.18-4.73-8.45-4.4-8.72-4.1-8.95-3.77-9.2-3.42-9.44-3.06-9.66-2.7-9.88-2.3-10.07-1.93-10.28-1.5-10.46-1.1-10.64-.67-9.84-.2.04-2z" stroke="#979ea8" stroke-width=".05" fill="#979ea8"/><path d="M542.05 279.02l-.04 2-1-.02v-2z" fill="#979ea8"/><path d="M542.08 279l-.05 2.05-1.05-.03v-2.05zm-1.06 1.98l.96.02.04-1.95-1-.03z" stroke="#979ea8" stroke-width=".05" fill="#979ea8"/><path d="M769.86 495.77l-5.23-14.06 9.26-.38z" fill="#979ea8"/><path d="M770 499l-6.8-18.23 12.02-.5zm-3.96-16.35l3.7 9.88 2.82-10.15z" stroke="#979ea8" stroke-width=".05" fill="#979ea8"/><use xlink:href="#m" transform="matrix(1,0,0,1,599.7873512413491,330.62851053315717) translate(0 14.222222222222223)"/><use xlink:href="#k" transform="matrix(1,0,0,1,599.7873512413491,330.62851053315717) translate(66.96296296296296 14.222222222222223)"/><use xlink:href="#l" transform="matrix(1,0,0,1,599.7873512413491,330.62851053315717) translate(148.79012345679013 14.222222222222223)"/><path d="M716.3 725.9l-6.15 6.56-6.48 6.34-6.8 6.1-7.08 5.88-7.4 5.6-7.68 5.35-7.97 5.05-8.25 4.77-8.52 4.45-8.78 4.13-9.04 3.8-9.28 3.45-9.5 3.1-9.75 2.7-9.95 2.34-10.16 1.94-10.35 1.53-10.54 1.1-10.73.67-9.88.2-.04-2 9.84-.2 10.64-.66 10.46-1.1 10.27-1.5 10.06-1.93 9.88-2.32 9.65-2.7 9.43-3.06 9.2-3.43 8.95-3.77 8.7-4.1 8.46-4.4 8.17-4.73 7.9-5 7.63-5.3 7.32-5.56 7.03-5.8 6.72-6.06 6.42-6.28 6.1-6.5 1.47-1.7h2.63zm53.9-126.34l-.45 5.55-1.18 9.3-1.54 9.1-1.9 8.93-2.24 8.74-2.6 8.57-2.92 8.4-3.26 8.23-3.6 8.07-3.9 7.9-4.25 7.7-4.57 7.55-2.6 3.93h-2.4l3.3-5 4.54-7.48 4.2-7.65 3.88-7.82 3.56-7.98 3.23-8.16 2.9-8.32 2.57-8.5 2.22-8.65 1.87-8.84 1.52-9.02 1.16-9.2.46-5.5z" stroke="#979ea8" stroke-width=".05" fill="#979ea8"/><path d="M542.05 800.98L541 801v-2l1-.02z" fill="#979ea8"/><path d="M542.08 801l-1.1.03v-2.05l1.05-.03zm-1.06-1.98v1.96l1-.03L542 799z" stroke="#979ea8" stroke-width=".05" fill="#979ea8"/><path d="M773.9 598.68l-9.27-.4 5.23-14.05z" fill="#979ea8"/><path d="M775.22 599.74l-12-.5L770 581zm-9.18-2.4l6.52.28-2.83-10.15z" stroke="#979ea8" stroke-width=".05" fill="#979ea8"/><g><use xlink:href="#n" transform="matrix(1,0,0,1,609.5586231892534,701.5255881398009) translate(0 14.222222222222223)"/><use xlink:href="#k" transform="matrix(1,0,0,1,609.5586231892534,701.5255881398009) translate(95.60493827160494 14.222222222222223)"/><use xlink:href="#l" transform="matrix(1,0,0,1,609.5586231892534,701.5255881398009) translate(177.4320987654321 14.222222222222223)"/></g><defs><path fill="#6f7681" d="M185-189c-5-48-123-54-124 2 14 75 158 14 163 119 3 78-121 87-175 55-17-10-28-26-33-46l33-7c5 56 141 63 141-1 0-78-155-14-162-118-5-82 145-84 179-34 5 7 8 16 11 25" id="o"/><path fill="#6f7681" d="M30 0v-248h187v28H63v79h144v27H63v87h162V0H30" id="p"/><g id="a"><use transform="matrix(0.06172839506172839,0,0,0.06172839506172839,0,0)" xlink:href="#o"/><use transform="matrix(0.06172839506172839,0,0,0.06172839506172839,14.814814814814813,0)" xlink:href="#p"/><use transform="matrix(0.06172839506172839,0,0,0.06172839506172839,29.629629629629626,0)" xlink:href="#o"/></g><path fill="#6f7681" d="M190 0L58-211 59 0H30v-248h39L202-35l-2-213h31V0h-41" id="q"/><g id="b"><use transform="matrix(0.06172839506172839,0,0,0.06172839506172839,0,0)" xlink:href="#o"/><use transform="matrix(0.06172839506172839,0,0,0.06172839506172839,14.814814814814813,0)" xlink:href="#q"/><use transform="matrix(0.06172839506172839,0,0,0.06172839506172839,30.80246913580247,0)" xlink:href="#o"/></g><path fill="#6f7681" d="M59-47c-2 24 18 29 38 22v24C64 9 27 4 27-40v-127H5v-23h24l9-43h21v43h35v23H59v120" id="r"/><path fill="#6f7681" d="M100-194c62-1 85 37 85 99 1 63-27 99-86 99S16-35 15-95c0-66 28-99 85-99zM99-20c44 1 53-31 53-75 0-43-8-75-51-75s-53 32-53 75 10 74 51 75" id="s"/><path fill="#6f7681" d="M115-194c55 1 70 41 70 98S169 2 115 4C84 4 66-9 55-30l1 105H24l-1-265h31l2 30c10-21 28-34 59-34zm-8 174c40 0 45-34 45-75s-6-73-45-74c-42 0-51 32-51 76 0 43 10 73 51 73" id="t"/><path fill="#6f7681" d="M24-231v-30h32v30H24zM24 0v-190h32V0H24" id="u"/><path fill="#6f7681" d="M96-169c-40 0-48 33-48 73s9 75 48 75c24 0 41-14 43-38l32 2c-6 37-31 61-74 61-59 0-76-41-82-99-10-93 101-131 147-64 4 7 5 14 7 22l-32 3c-4-21-16-35-41-35" id="v"/><g id="c"><use transform="matrix(0.06172839506172839,0,0,0.06172839506172839,0,0)" xlink:href="#r"/><use transform="matrix(0.06172839506172839,0,0,0.06172839506172839,6.172839506172839,0)" xlink:href="#s"/><use transform="matrix(0.06172839506172839,0,0,0.06172839506172839,18.51851851851852,0)" xlink:href="#t"/><use transform="matrix(0.06172839506172839,0,0,0.06172839506172839,30.864197530864196,0)" xlink:href="#u"/><use transform="matrix(0.06172839506172839,0,0,0.06172839506172839,35.74074074074074,0)" xlink:href="#v"/></g><path fill="#6f7681" d="M140-251c81 0 123 46 123 126C263-53 228-8 163 1c7 30 30 48 69 40v23c-55 16-95-15-103-61C56-3 17-48 17-125c0-80 42-126 123-126zm0 227c63 0 89-41 89-101s-29-99-89-99c-61 0-89 39-89 99S79-25 140-24" id="w"/><g id="d"><use transform="matrix(0.06172839506172839,0,0,0.06172839506172839,0,0)" xlink:href="#o"/><use transform="matrix(0.06172839506172839,0,0,0.06172839506172839,14.814814814814813,0)" xlink:href="#w"/><use transform="matrix(0.06172839506172839,0,0,0.06172839506172839,32.09876543209876,0)" xlink:href="#o"/></g><path fill="#6f7681" d="M145-31C134-9 116 4 85 4 32 4 16-35 15-94c0-59 17-99 70-100 32-1 48 14 60 33 0-11-1-24 2-32h30l-1 268h-32zM93-21c41 0 51-33 51-76s-8-73-50-73c-40 0-46 35-46 75s5 74 45 74" id="x"/><path fill="#6f7681" d="M84 4C-5 8 30-112 23-190h32v120c0 31 7 50 39 49 72-2 45-101 50-169h31l1 190h-30c-1-10 1-25-2-33-11 22-28 36-60 37" id="y"/><path fill="#6f7681" d="M100-194c63 0 86 42 84 106H49c0 40 14 67 53 68 26 1 43-12 49-29l28 8c-11 28-37 45-77 45C44 4 14-33 15-96c1-61 26-98 85-98zm52 81c6-60-76-77-97-28-3 7-6 17-6 28h103" id="z"/><g id="e"><use transform="matrix(0.06172839506172839,0,0,0.06172839506172839,0,0)" xlink:href="#x"/><use transform="matrix(0.06172839506172839,0,0,0.06172839506172839,12.345679012345679,0)" xlink:href="#y"/><use transform="matrix(0.06172839506172839,0,0,0.06172839506172839,24.691358024691358,0)" xlink:href="#z"/><use transform="matrix(0.06172839506172839,0,0,0.06172839506172839,37.03703703703704,0)" xlink:href="#y"/><use transform="matrix(0.06172839506172839,0,0,0.06172839506172839,49.382716049382715,0)" xlink:href="#z"/></g><path fill="#6f7681" d="M137-103V0h-34v-103L8-248h37l75 118 75-118h37" id="A"/><path fill="#6f7681" d="M114-163C36-179 61-72 57 0H25l-1-190h30c1 12-1 29 2 39 6-27 23-49 58-41v29" id="B"/><g id="f"><use transform="matrix(0.06172839506172839,0,0,0.06172839506172839,0,0)" xlink:href="#A"/><use transform="matrix(0.06172839506172839,0,0,0.06172839506172839,12.777777777777777,0)" xlink:href="#s"/><use transform="matrix(0.06172839506172839,0,0,0.06172839506172839,25.123456790123456,0)" xlink:href="#y"/><use transform="matrix(0.06172839506172839,0,0,0.06172839506172839,37.46913580246913,0)" xlink:href="#B"/></g><path fill="#6f7681" d="M141-36C126-15 110 5 73 4 37 3 15-17 15-53c-1-64 63-63 125-63 3-35-9-54-41-54-24 1-41 7-42 31l-33-3c5-37 33-52 76-52 45 0 72 20 72 64v82c-1 20 7 32 28 27v20c-31 9-61-2-59-35zM48-53c0 20 12 33 32 33 41-3 63-29 60-74-43 2-92-5-92 41" id="C"/><path fill="#6f7681" d="M24 0v-261h32V0H24" id="D"/><path fill="#6f7681" d="M117-194c89-4 53 116 60 194h-32v-121c0-31-8-49-39-48C34-167 62-67 57 0H25l-1-190h30c1 10-1 24 2 32 11-22 29-35 61-36" id="E"/><g id="g"><use transform="matrix(0.06172839506172839,0,0,0.06172839506172839,0,0)" xlink:href="#C"/><use transform="matrix(0.06172839506172839,0,0,0.06172839506172839,12.345679012345679,0)" xlink:href="#t"/><use transform="matrix(0.06172839506172839,0,0,0.06172839506172839,24.691358024691358,0)" xlink:href="#t"/><use transform="matrix(0.06172839506172839,0,0,0.06172839506172839,37.03703703703704,0)" xlink:href="#D"/><use transform="matrix(0.06172839506172839,0,0,0.06172839506172839,41.91358024691358,0)" xlink:href="#u"/><use transform="matrix(0.06172839506172839,0,0,0.06172839506172839,46.79012345679013,0)" xlink:href="#v"/><use transform="matrix(0.06172839506172839,0,0,0.06172839506172839,57.90123456790124,0)" xlink:href="#C"/><use transform="matrix(0.06172839506172839,0,0,0.06172839506172839,70.24691358024693,0)" xlink:href="#r"/><use transform="matrix(0.06172839506172839,0,0,0.06172839506172839,76.41975308641976,0)" xlink:href="#u"/><use transform="matrix(0.06172839506172839,0,0,0.06172839506172839,81.2962962962963,0)" xlink:href="#s"/><use transform="matrix(0.06172839506172839,0,0,0.06172839506172839,93.64197530864199,0)" xlink:href="#E"/></g><path fill="#6f7681" d="M169-182c-1-43-94-46-97-3 18 66 151 10 154 114 3 95-165 93-204 36-6-8-10-19-12-30l50-8c3 46 112 56 116 5-17-69-150-10-154-114-4-87 153-88 188-35 5 8 8 18 10 28" id="F"/><path fill="#6f7681" d="M185-48c-13 30-37 53-82 52C43 2 14-33 14-96s30-98 90-98c62 0 83 45 84 108H66c0 31 8 55 39 56 18 0 30-7 34-22zm-45-69c5-46-57-63-70-21-2 6-4 13-4 21h74" id="G"/><path fill="#6f7681" d="M135-194c87-1 58 113 63 194h-50c-7-57 23-157-34-157-59 0-34 97-39 157H25l-1-190h47c2 12-1 28 3 38 12-26 28-41 61-42" id="H"/><path fill="#6f7681" d="M88-194c31-1 46 15 58 34l-1-101h50l1 261h-48c-2-10 0-23-3-31C134-8 116 4 84 4 32 4 16-41 15-95c0-56 19-97 73-99zm17 164c33 0 40-30 41-66 1-37-9-64-41-64s-38 30-39 65c0 43 13 65 39 65" id="I"/><path fill="#6f7681" d="M137-138c1-29-70-34-71-4 15 46 118 7 119 86 1 83-164 76-172 9l43-7c4 19 20 25 44 25 33 8 57-30 24-41C81-84 22-81 20-136c-2-80 154-74 161-7" id="J"/><g id="h"><use transform="matrix(0.04938271604938272,0,0,0.04938271604938272,0,0)" xlink:href="#F"/><use transform="matrix(0.04938271604938272,0,0,0.04938271604938272,11.851851851851853,0)" xlink:href="#G"/><use transform="matrix(0.04938271604938272,0,0,0.04938271604938272,21.7283950617284,0)" xlink:href="#H"/><use transform="matrix(0.04938271604938272,0,0,0.04938271604938272,32.543209876543216,0)" xlink:href="#I"/><use transform="matrix(0.04938271604938272,0,0,0.04938271604938272,43.35802469135803,0)" xlink:href="#J"/></g><path fill="#6f7681" d="M220-157c-53 9-28 100-34 157h-49v-107c1-27-5-49-29-50C55-147 81-57 75 0H25l-1-190h47c2 12-1 28 3 38 10-53 101-56 108 0 13-22 24-43 59-42 82 1 51 116 57 194h-49v-107c-1-25-5-48-29-50" id="K"/><path fill="#6f7681" d="M133-34C117-15 103 5 69 4 32 3 11-16 11-54c-1-60 55-63 116-61 1-26-3-47-28-47-18 1-26 9-28 27l-52-2c7-38 36-58 82-57s74 22 75 68l1 82c-1 14 12 18 25 15v27c-30 8-71 5-69-32zm-48 3c29 0 43-24 42-57-32 0-66-3-65 30 0 17 8 27 23 27" id="L"/><path fill="#6f7681" d="M25-224v-37h50v37H25zM25 0v-190h50V0H25" id="M"/><path fill="#6f7681" d="M25 0v-261h50V0H25" id="N"/><g id="i"><use transform="matrix(0.04938271604938272,0,0,0.04938271604938272,0,0)" xlink:href="#G"/><use transform="matrix(0.04938271604938272,0,0,0.04938271604938272,9.876543209876544,0)" xlink:href="#K"/><use transform="matrix(0.04938271604938272,0,0,0.04938271604938272,25.679012345679016,0)" xlink:href="#L"/><use transform="matrix(0.04938271604938272,0,0,0.04938271604938272,35.55555555555556,0)" xlink:href="#M"/><use transform="matrix(0.04938271604938272,0,0,0.04938271604938272,40.49382716049383,0)" xlink:href="#N"/></g><path fill="#6f7681" d="M24-248c93 1 206-16 204 79-1 75-69 88-152 82V0H24v-248zm52 121c47 0 100 7 100-41 0-47-54-39-100-39v80" id="O"/><path fill="#6f7681" d="M85 4C-2 5 27-109 22-190h50c7 57-23 150 33 157 60-5 35-97 40-157h50l1 190h-47c-2-12 1-28-3-38-12 25-28 42-61 42" id="P"/><path fill="#6f7681" d="M135-194c52 0 70 43 70 98 0 56-19 99-73 100-30 1-46-15-58-35L72 0H24l1-261h50v104c11-23 29-37 60-37zM114-30c31 0 40-27 40-66 0-37-7-63-39-63s-41 28-41 65c0 36 8 64 40 64" id="Q"/><path fill="#6f7681" d="M114-157C55-157 80-60 75 0H25v-261h50l-1 109c12-26 28-41 61-42 86-1 58 113 63 194h-50c-7-57 23-157-34-157" id="R"/><g id="j"><use transform="matrix(0.04938271604938272,0,0,0.04938271604938272,0,0)" xlink:href="#O"/><use transform="matrix(0.04938271604938272,0,0,0.04938271604938272,11.851851851851853,0)" xlink:href="#P"/><use transform="matrix(0.04938271604938272,0,0,0.04938271604938272,22.666666666666668,0)" xlink:href="#Q"/><use transform="matrix(0.04938271604938272,0,0,0.04938271604938272,33.48148148148148,0)" xlink:href="#N"/><use transform="matrix(0.04938271604938272,0,0,0.04938271604938272,38.41975308641975,0)" xlink:href="#M"/><use transform="matrix(0.04938271604938272,0,0,0.04938271604938272,43.358024691358025,0)" xlink:href="#J"/><use transform="matrix(0.04938271604938272,0,0,0.04938271604938272,53.23456790123457,0)" xlink:href="#R"/><use transform="matrix(0.04938271604938272,0,0,0.04938271604938272,64.04938271604938,0)" xlink:href="#G"/><use transform="matrix(0.04938271604938272,0,0,0.04938271604938272,73.92592592592592,0)" xlink:href="#J"/></g><path fill="#6f7681" d="M121-226c-27-7-43 5-38 36h38v33H83V0H34v-157H6v-33h28c-9-59 32-81 87-68v32" id="S"/><path fill="#6f7681" d="M190-63c-7 42-38 67-86 67-59 0-84-38-90-98-12-110 154-137 174-36l-49 2c-2-19-15-32-35-32-30 0-35 28-38 64-6 74 65 87 74 30" id="T"/><path fill="#6f7681" d="M147 0L96-86 75-71V0H25v-261h50v150l67-79h53l-66 74L201 0h-54" id="U"/><g id="k"><use transform="matrix(0.04938271604938272,0,0,0.04938271604938272,0,0)" xlink:href="#S"/><use transform="matrix(0.04938271604938272,0,0,0.04938271604938272,5.8765432098765435,0)" xlink:href="#G"/><use transform="matrix(0.04938271604938272,0,0,0.04938271604938272,15.753086419753087,0)" xlink:href="#G"/><use transform="matrix(0.04938271604938272,0,0,0.04938271604938272,25.629629629629633,0)" xlink:href="#I"/><use transform="matrix(0.04938271604938272,0,0,0.04938271604938272,36.44444444444445,0)" xlink:href="#Q"/><use transform="matrix(0.04938271604938272,0,0,0.04938271604938272,47.25925925925927,0)" xlink:href="#L"/><use transform="matrix(0.04938271604938272,0,0,0.04938271604938272,57.135802469135804,0)" xlink:href="#T"/><use transform="matrix(0.04938271604938272,0,0,0.04938271604938272,67.01234567901236,0)" xlink:href="#U"/></g><path fill="#6f7681" d="M128 0H69L1-190h53L99-40l48-150h52" id="V"/><path fill="#6f7681" d="M115-3C79 11 28 4 28-45v-112H4v-33h27l15-45h31v45h36v33H77v99c-1 23 16 31 38 25v30" id="W"/><g id="l"><use transform="matrix(0.04938271604938272,0,0,0.04938271604938272,0,0)" xlink:href="#G"/><use transform="matrix(0.04938271604938272,0,0,0.04938271604938272,9.876543209876544,0)" xlink:href="#V"/><use transform="matrix(0.04938271604938272,0,0,0.04938271604938272,19.75308641975309,0)" xlink:href="#G"/><use transform="matrix(0.04938271604938272,0,0,0.04938271604938272,29.629629629629633,0)" xlink:href="#H"/><use transform="matrix(0.04938271604938272,0,0,0.04938271604938272,40.44444444444445,0)" xlink:href="#W"/><use transform="matrix(0.04938271604938272,0,0,0.04938271604938272,46.320987654320994,0)" xlink:href="#J"/></g><path fill="#6f7681" d="M182-130c37 4 62 22 62 59C244 23 116-4 24 0v-248c84 5 203-23 205 63 0 31-19 50-47 55zM76-148c40-3 101 13 101-30 0-44-60-28-101-31v61zm0 110c48-3 116 14 116-37 0-48-69-32-116-35v72" id="X"/><path fill="#6f7681" d="M135-150c-39-12-60 13-60 57V0H25l-1-190h47c2 13-1 29 3 40 6-28 27-53 61-41v41" id="Y"/><g id="m"><use transform="matrix(0.04938271604938272,0,0,0.04938271604938272,0,0)" xlink:href="#X"/><use transform="matrix(0.04938271604938272,0,0,0.04938271604938272,12.790123456790125,0)" xlink:href="#P"/><use transform="matrix(0.04938271604938272,0,0,0.04938271604938272,23.60493827160494,0)" xlink:href="#S"/><use transform="matrix(0.04938271604938272,0,0,0.04938271604938272,29.481481481481485,0)" xlink:href="#S"/><use transform="matrix(0.04938271604938272,0,0,0.04938271604938272,35.358024691358025,0)" xlink:href="#G"/><use transform="matrix(0.04938271604938272,0,0,0.04938271604938272,45.23456790123457,0)" xlink:href="#Y"/><use transform="matrix(0.04938271604938272,0,0,0.04938271604938272,52.14814814814815,0)" xlink:href="#J"/></g><path fill="#6f7681" d="M67-125c0 53 21 87 73 88 37 1 54-22 65-47l45 17C233-25 199 4 140 4 58 4 20-42 15-125 8-235 124-281 211-232c18 10 29 29 36 50l-46 12c-8-25-30-41-62-41-52 0-71 34-72 86" id="Z"/><path fill="#6f7681" d="M110-194c64 0 96 36 96 99 0 64-35 99-97 99-61 0-95-36-95-99 0-62 34-99 96-99zm-1 164c35 0 45-28 45-65 0-40-10-65-43-65-34 0-45 26-45 65 0 36 10 65 43 65" id="aa"/><g id="n"><use transform="matrix(0.04938271604938272,0,0,0.04938271604938272,0,0)" xlink:href="#Z"/><use transform="matrix(0.04938271604938272,0,0,0.04938271604938272,12.790123456790125,0)" xlink:href="#aa"/><use transform="matrix(0.04938271604938272,0,0,0.04938271604938272,23.60493827160494,0)" xlink:href="#H"/><use transform="matrix(0.04938271604938272,0,0,0.04938271604938272,34.41975308641975,0)" xlink:href="#J"/><use transform="matrix(0.04938271604938272,0,0,0.04938271604938272,44.2962962962963,0)" xlink:href="#P"/><use transform="matrix(0.04938271604938272,0,0,0.04938271604938272,55.111111111111114,0)" xlink:href="#K"/><use transform="matrix(0.04938271604938272,0,0,0.04938271604938272,70.91358024691358,0)" xlink:href="#G"/><use transform="matrix(0.04938271604938272,0,0,0.04938271604938272,80.79012345679013,0)" xlink:href="#J"/></g></defs></g></svg>